HIERARCHY
ROOT hip
{
	OFFSET 0.000000 0.000000 0.000000
	CHANNELS 6 Xposition Yposition Zposition Xrotation Zrotation Yrotation 
	JOINT abdomen
	{
		OFFSET 0.000000 3.422050 0.000000
		CHANNELS 3 Xrotation Zrotation Yrotation 
		JOINT chest
		{
			OFFSET 0.000000 8.486693 -0.684411
			CHANNELS 3 Xrotation Zrotation Yrotation 
			JOINT neck
			{
				OFFSET 0.000000 10.266162 -0.273764
				CHANNELS 3 Xrotation Zrotation Yrotation 
				JOINT head
				{
					OFFSET 0.000000 3.148285 0.000000
					CHANNELS 3 Xrotation Zrotation Yrotation 
					End Site
					{
						OFFSET 0.000000 3.148289 0.000000
					}
				}
			}
			JOINT lCollar
			{
				OFFSET 3.422053 6.707223 -0.821293
				CHANNELS 3 Yrotation Zrotation Xrotation 
				JOINT lShldr
				{
					OFFSET 3.285171 0.000000 0.000000
					CHANNELS 3 Zrotation Yrotation Xrotation 
					JOINT lForeArm
					{
						OFFSET 10.129278 0.000000 0.000000
						CHANNELS 3 Yrotation Zrotation Xrotation 
						JOINT lHand
						{
							OFFSET 8.486692 0.000000 0.000000
							CHANNELS 3 Zrotation Yrotation Xrotation 
							End Site
							{
								OFFSET 4.106464 0.000000 0.000000
							}
						}
					}
				}
			}
			JOINT rCollar
			{
				OFFSET -3.558935 6.707223 -0.821293
				CHANNELS 3 Yrotation Zrotation Xrotation 
				JOINT rShldr
				{
					OFFSET -3.148289 0.000000 0.000000
					CHANNELS 3 Zrotation Yrotation Xrotation 
					JOINT rForeArm
					{
						OFFSET -10.266159 0.000000 0.000000
						CHANNELS 3 Yrotation Zrotation Xrotation 
						JOINT rHand
						{
							OFFSET -8.349810 0.000000 0.000000
							CHANNELS 3 Zrotation Yrotation Xrotation 
							End Site
							{
								OFFSET -4.106464 0.000000 0.000000
							}
						}
					}
				}
			}
		}
	}
	JOINT lThigh
	{
		OFFSET 5.338403 -1.642589 1.368821
		CHANNELS 3 Xrotation Zrotation Yrotation 
		JOINT lShin
		{
			OFFSET -2.053232 -20.121670 0.000000
			CHANNELS 3 Xrotation Zrotation Yrotation 
			JOINT lFoot
			{
				OFFSET 0.000000 -19.300380 -1.231939
				CHANNELS 3 Xrotation Yrotation Zrotation 
				End Site
				{
					OFFSET 0.000000 -2.463878 4.653993
				}
			}
		}
	}
	JOINT rThigh
	{
		OFFSET -5.338403 -1.642589 1.368821
		CHANNELS 3 Xrotation Zrotation Yrotation 
		JOINT rShin
		{
			OFFSET 2.053232 -20.121670 0.000000
			CHANNELS 3 Xrotation Zrotation Yrotation 
			JOINT rFoot
			{
				OFFSET 0.000000 -19.300380 -1.231939
				CHANNELS 3 Xrotation Yrotation Zrotation 
				End Site
				{
					OFFSET 0.000000 -2.463878 4.653993
				}
			}
		}
	}
}
MOTION
Frames: 15
Frame Time: 0.049989
0.000000 43.528500 0.000000 0.000000 0.000000 0.000000 0.000000 0.000000 0.000000 0.000000 0.000000 0.000000 0.000000 0.000000 0.000000 0.000000 0.000000 0.000000 0.000000 0.000000 0.000000 0.000000 0.000000 0.000000 0.000000 0.000000 0.000000 0.000000 0.000000 0.000000 0.000000 0.000000 0.000000 0.000000 0.000000 0.000000 0.000000 0.000000 0.000000 0.000000 0.000000 0.000000 0.000000 0.000000 0.000000 0.000000 0.000000 0.000000 0.000000 0.000000 0.000000 0.000000 0.000000 0.000000 0.000000 0.000000 0.000000 0.000000 0.000000 0.000000 
3.919895 21.676296 25.450684 0.011197 -0.014096 -135.029953 -1.787085 6.573273 -0.710452 5.466600 -0.240516 -0.132269 9.988152 0.000000 0.000000 -37.004505 0.000000 0.000000 28.100639 -19.587084 -55.640026 -47.971462 1.073153 56.413052 -40.144928 22.639631 -11.068177 -7.671072 2.775148 -34.044815 -6.208468 1.379563 -44.066788 38.687870 10.149822 6.920902 69.253586 3.878440 -7.047898 15.965822 -29.562872 -17.628532 -16.965733 6.960391 -0.764845 106.032257 5.146591 0.120334 47.958599 -19.315268 -1.967633 -14.680490 -5.967723 0.954791 106.349083 -6.756607 -1.327032 34.759075 -8.583643 -1.216605 
3.896612 21.395449 25.448431 0.011197 -0.014096 -135.029953 -0.109572 6.399857 1.122515 6.598013 -2.038705 2.225860 9.988195 -0.000318 2.243895 -35.013573 0.152427 1.240726 23.858747 -18.201843 -59.058304 -47.917015 1.472427 56.505535 -42.702957 23.679016 -9.961110 -8.847028 4.531044 -34.856705 -13.271874 1.892800 -42.883949 38.699402 10.172528 6.936007 70.174652 3.809125 -7.048992 16.798019 -26.500643 -21.202465 -16.965733 6.960391 -0.764845 106.770500 5.206720 0.184002 47.060406 -19.353731 -2.030865 -14.680490 -5.967723 0.954791 107.070679 -6.810834 -1.411353 33.909931 -8.483784 -1.126631 
3.873328 21.114601 25.446178 0.011197 -0.014096 -135.029953 1.565088 6.172666 2.953511 7.661013 -3.890409 4.562745 9.988228 -0.000639 4.492988 -33.014729 0.261848 2.489178 19.738188 -16.581717 -62.338005 -47.861897 1.871641 56.598396 -45.311050 24.674505 -8.791620 -10.054093 6.273719 -35.709019 -20.431152 2.260056 -41.631519 38.710930 10.195230 6.951114 71.096001 3.739775 -7.048968 17.401726 -23.389688 -24.649647 -16.965733 6.960391 -0.764845 107.509087 5.266041 0.248465 46.161648 -19.391264 -2.094769 -14.680490 -5.967723 0.954791 107.792603 -6.864014 -1.496384 33.060574 -8.385224 -1.035161 
3.850045 20.833754 25.443926 0.011197 -0.014096 -135.029953 3.233626 5.892001 4.779274 8.653201 -5.789645 6.878433 9.988250 -0.000961 6.745561 -31.010551 0.327709 3.742822 15.761334 -14.747751 -65.456291 -47.806107 2.270786 56.691681 -47.967381 25.621876 -7.561223 -11.293699 8.000529 -36.602833 -27.626978 2.468881 -40.337582 38.722488 10.217930 6.966231 72.017525 3.670417 -7.047827 17.792053 -20.251802 -27.987259 -16.965733 6.960391 -0.764845 108.247910 5.324539 0.313707 45.262428 -19.427862 -2.159316 -14.680490 -5.967723 0.954791 108.514809 -6.916137 -1.582106 32.211052 -8.287992 -0.942227 
3.826761 20.552906 25.441673 0.011197 -0.014096 -135.029953 4.892840 5.558451 6.596609 9.572489 -7.730168 9.173415 9.988257 -0.001284 8.999877 -29.003708 0.349675 4.999073 11.532470 -13.366029 -68.863167 -47.749657 2.669851 56.785393 -50.669571 26.517063 -6.272048 -12.567269 9.708793 -37.539257 -34.797604 2.514218 -39.032764 38.734035 10.240625 6.981353 72.939087 3.601076 -7.045568 17.983234 -17.107958 -31.231207 -16.965733 6.960391 -0.764845 108.986954 5.382200 0.379715 44.362858 -19.463499 -2.224486 -14.680490 -5.967723 0.954791 109.237228 -6.967186 -1.668500 31.361500 -8.192123 -0.847858 
3.803478 20.272058 25.439421 0.011197 -0.014096 -135.029953 6.539624 5.172873 8.402418 10.417051 -9.705544 11.448594 9.988252 -0.001607 11.254191 -26.996866 0.327634 6.255324 7.411801 -11.744330 -72.143044 -47.692539 3.068824 56.879528 -53.414597 27.356213 -4.926860 -13.876188 11.395773 -38.519348 -41.882309 2.398829 -37.747818 38.745594 10.263319 6.996480 73.860603 3.531780 -7.042192 18.782433 -14.048755 -34.733246 -16.965733 6.960391 -0.764845 109.726112 5.439007 0.446469 43.463047 -19.498161 -2.290257 -14.680490 -5.967723 0.954791 109.959801 -7.017147 -1.755544 30.511986 -8.097650 -0.752086 
3.780195 19.991211 25.437168 0.011197 -0.014096 -135.029953 8.171000 4.736392 10.193730 11.185288 -11.709212 13.705254 9.988235 -0.001929 13.506765 -24.992699 0.261698 7.508964 3.422941 -9.903723 -75.271729 -47.634739 3.467690 56.974094 -56.198799 28.135746 -3.529082 -15.221803 13.058707 -39.544163 -49.000893 2.758799 -36.514297 38.757153 10.286010 7.011612 74.781929 3.462558 -7.037703 19.382067 -10.938784 -38.160828 -16.965731 6.960390 -0.764845 110.465355 5.494949 0.513955 42.563118 -19.531855 -2.356604 -14.680490 -5.967723 0.954791 110.682449 -7.066011 -1.843219 29.662607 -8.004602 -0.654943 
3.756911 19.710363 25.434916 0.011197 -0.014096 -135.029953 9.784151 4.250384 11.967735 11.875799 -13.734557 15.945034 9.988203 -0.002250 15.755857 -22.993849 0.152203 8.757408 -0.745657 -8.406538 -78.614975 -47.576252 3.866440 57.069103 -59.017910 28.852421 -2.082795 -16.605398 14.694811 -40.614704 -56.155479 2.963690 -35.240261 38.768734 10.308700 7.026752 75.702934 3.393434 -7.032098 19.787691 -7.799603 -41.524673 -16.965731 6.960391 -0.764845 111.204605 5.550009 0.582155 41.663162 -19.564539 -2.423502 -14.680490 -5.967723 0.954791 111.405174 -7.113769 -1.931503 28.813450 -7.913012 -0.556463 
3.733628 19.429516 25.432663 0.011197 -0.014096 -135.029953 11.376436 3.716452 13.721798 12.487338 -15.774973 18.169895 9.988162 -0.002569 17.999754 -21.002928 -0.000298 9.998127 -4.803910 -6.676415 -81.827515 -47.517078 4.265062 57.164551 -61.867016 29.503386 -0.592716 -18.028166 16.301270 -41.731869 -63.285488 3.008595 -33.955532 38.780315 10.331385 7.041897 76.623543 3.324435 -7.025386 20.005104 -4.652466 -44.835602 -16.965731 6.960390 -0.764845 111.943810 5.604176 0.651053 40.763309 -19.596228 -2.490925 -14.680490 -5.967723 0.954791 112.127846 -7.160406 -2.020376 27.964621 -7.822907 -0.456681 
3.733628 19.429516 25.432663 0.011197 -0.014096 -135.029953 11.637257 3.730208 14.070453 12.836549 -15.765352 18.157091 10.471704 -0.365937 18.061668 -21.764278 -0.095230 9.957095 -4.803910 -6.676416 -81.827515 -47.518993 4.252308 57.161507 -61.867016 29.503386 -0.592716 -17.951849 16.121351 -42.175999 -64.086609 2.969400 -33.775326 38.791893 10.354067 7.057047 76.623543 3.324435 -7.025386 19.844395 -4.068748 -45.225708 -16.965733 6.960391 -0.764845 111.943810 5.604176 0.651053 40.763309 -19.596228 -2.490925 -14.680490 -5.967723 0.954791 112.127846 -7.160406 -2.020376 27.964621 -7.822907 -0.456681 
3.733628 19.429516 25.432663 0.011197 -0.014096 -135.029953 11.898223 3.742382 14.419255 13.185798 -15.755650 18.144342 10.955128 -0.730000 18.120550 -22.526184 -0.190776 9.917299 -4.803911 -6.676415 -81.827522 -47.520893 4.239556 57.158432 -61.867016 29.503386 -0.592715 -17.874128 15.941952 -42.620136 -64.888298 2.927656 -33.595535 38.803486 10.376747 7.072205 76.623543 3.324435 -7.025386 19.679693 -3.485712 -45.617477 -16.965733 6.960391 -0.764845 111.943810 5.604176 0.651053 40.763313 -19.596230 -2.490925 -14.680490 -5.967723 0.954791 112.127846 -7.160406 -2.020376 27.964622 -7.822907 -0.456681 
3.733628 19.429516 25.432663 0.011197 -0.014096 -135.029953 12.159322 3.752974 14.768194 13.535074 -15.745872 18.131655 11.438444 -1.094711 18.176386 -23.288572 -0.286913 9.878744 -4.803910 -6.676415 -81.827515 -47.522804 4.226801 57.155380 -61.867016 29.503386 -0.592715 -17.795000 15.763069 -43.064247 -65.690475 2.883365 -33.416210 38.815094 10.399425 7.087368 76.623543 3.324435 -7.025386 19.510984 -2.903439 -46.010956 -16.965733 6.960391 -0.764845 111.943810 5.604176 0.651053 40.763309 -19.596228 -2.490926 -14.680490 -5.967723 0.954791 112.127846 -7.160406 -2.020376 27.964621 -7.822907 -0.456681 
3.733628 19.429516 25.432663 0.011197 -0.014096 -135.029953 12.420527 3.761979 15.117241 13.884379 -15.736020 18.119026 11.921668 -1.460026 18.229176 -24.051397 -0.383615 9.841454 -4.803910 -6.676415 -81.827515 -47.524696 4.214044 57.152313 -61.867008 29.503382 -0.592717 -17.714485 15.584740 -43.508362 -66.493057 2.836535 -33.237400 38.826702 10.422099 7.102538 76.623543 3.324435 -7.025386 19.338261 -2.322012 -46.406193 -16.965731 6.960391 -0.764845 111.943810 5.604175 0.651053 40.763306 -19.596226 -2.490925 -14.680490 -5.967723 0.954791 112.127846 -7.160406 -2.020376 27.964619 -7.822906 -0.456681 
3.733628 19.429516 25.432663 0.011197 -0.014096 -135.029953 12.681831 3.769396 15.466390 14.233706 -15.726096 18.106468 12.404802 -1.825896 18.278902 -24.814573 -0.480858 9.805431 -4.803909 -6.676415 -81.827515 -47.526604 4.201293 57.149254 -61.867008 29.503382 -0.592717 -17.632589 15.406974 -43.952457 -67.295944 2.787179 -33.059170 38.838314 10.444773 7.117712 76.623543 3.324435 -7.025386 19.161499 -1.741508 -46.803219 -16.965731 6.960390 -0.764845 111.943810 5.604176 0.651053 40.763302 -19.596228 -2.490926 -14.680490 -5.967723 0.954791 112.127846 -7.160405 -2.020375 27.964621 -7.822907 -0.456681 
